<?xml version="1.0" encoding="utf-8"?>
<!-- Generator: Adobe Illustrator 16.0.3, SVG Export Plug-In . SVG Version: 6.00 Build 0)  -->
<!DOCTYPE svg PUBLIC "-//W3C//DTD SVG 1.1//EN" "http://www.w3.org/Graphics/SVG/1.1/DTD/svg11.dtd">
<svg version="1.1" id="Layer_1" xmlns="http://www.w3.org/2000/svg" xmlns:xlink="http://www.w3.org/1999/xlink" x="0px" y="0px"
	 width="145.271px" height="76.586px" viewBox="0 0 145.271 76.586" enable-background="new 0 0 145.271 76.586"
	 xml:space="preserve">
<g>
	<path fill="#FFFFFF" d="M5.544,5.401v3.888h7.537v3.36H5.544v6.192H1.272V2.041h12.457v3.36H5.544z"/>
	<path fill="#FFFFFF" d="M27.192,10.393v8.449h-4.056v-1.488c-0.84,1.104-2.208,1.68-3.96,1.68c-2.76,0-4.44-1.68-4.44-4.056
		c0-2.448,1.752-3.888,4.969-3.913h3.408v-0.192c0-1.272-0.84-2.04-2.521-2.04c-1.08,0-2.496,0.384-3.864,1.08l-1.176-2.736
		c2.016-0.936,3.84-1.464,6-1.464C25.104,5.713,27.168,7.465,27.192,10.393z M23.112,14.449v-1.152h-2.616
		c-1.248,0-1.872,0.432-1.872,1.392c0,0.936,0.672,1.536,1.824,1.536C21.744,16.226,22.848,15.505,23.112,14.449z"/>
	<path fill="#FFFFFF" d="M52.082,10.681v8.161h-4.128v-7.009c0-1.536-0.864-2.472-2.232-2.472c-1.56,0.048-2.52,1.32-2.52,3.072
		v6.409h-4.152v-7.009c0-1.536-0.84-2.472-2.208-2.472c-1.584,0.048-2.568,1.32-2.568,3.072v6.409h-4.128V5.905h4.128v2.136
		c0.888-1.536,2.376-2.304,4.272-2.328c2.112,0,3.672,1.104,4.321,2.928c0.84-1.92,2.424-2.904,4.56-2.928
		C50.257,5.713,52.082,7.657,52.082,10.681z"/>
	<path fill="#FFFFFF" d="M59.304,2.185c0,1.296-0.912,2.208-2.185,2.208c-1.272,0-2.184-0.912-2.184-2.208
		C54.935,0.912,55.847,0,57.119,0C58.392,0,59.304,0.912,59.304,2.185z M55.031,18.842V5.905h4.128v12.937H55.031z"/>
	<path fill="#FFFFFF" d="M62.615,18.842V1.032h4.152v17.81H62.615z"/>
	<path fill="#FFFFFF" d="M77.04,20.186c-0.96,2.352-2.592,3.504-4.992,3.504c-1.44,0-2.616-0.432-3.769-1.32l1.729-2.832
		c0.6,0.48,1.104,0.696,1.704,0.696c0.744,0,1.272-0.336,1.608-1.032l0.312-0.648L68.255,5.905h4.272l3.168,8.593l2.808-8.593h4.128
		L77.04,20.186z"/>
	<path fill="#FFFFFF" d="M1.272,47.642V30.841h4.272v16.801H1.272z"/>
	<path fill="#FFFFFF" d="M22.081,39.481v8.161h-4.128v-7.009c0-1.512-0.888-2.448-2.28-2.448c-1.512,0-2.472,1.08-2.64,2.616v6.841
		H8.88V34.705h4.152v2.112c0.912-1.512,2.4-2.28,4.32-2.304C20.209,34.513,22.081,36.457,22.081,39.481z"/>
	<path fill="#FFFFFF" d="M29.904,34.345v0.937h2.928v2.736h-2.928v9.625H25.8v-9.625h-1.752v-2.736H25.8v-1.2
		c0-2.856,2.16-4.44,4.944-4.44c1.272,0,2.64,0.336,3.625,0.912l-1.464,2.904c-0.456-0.336-1.032-0.528-1.512-0.528
		C30.552,32.905,29.904,33.385,29.904,34.345z"/>
	<path fill="#FFFFFF" d="M47.113,41.162c0,3.984-2.833,6.625-7.057,6.625c-4.249,0-7.081-2.64-7.081-6.625s2.832-6.601,7.081-6.601
		C44.28,34.561,47.113,37.177,47.113,41.162z M37.152,41.209c0,2.016,1.176,3.36,2.904,3.36c1.704,0,2.88-1.344,2.88-3.36
		c0-1.992-1.176-3.36-2.88-3.36C38.328,37.849,37.152,39.217,37.152,41.209z"/>
	<path fill="#FFFFFF" d="M53.496,36.889c0.888-1.512,2.352-2.352,4.2-2.376v3.744c-2.4-0.216-3.984,0.912-4.2,2.736v6.648h-4.152
		V34.705h4.152V36.889z"/>
	<path fill="#FFFFFF" d="M81.529,39.481v8.161H77.4v-7.009c0-1.536-0.864-2.472-2.232-2.472c-1.56,0.048-2.52,1.32-2.52,3.072v6.409
		h-4.152v-7.009c0-1.536-0.84-2.472-2.208-2.472c-1.584,0.048-2.568,1.32-2.568,3.072v6.409h-4.128V34.705h4.128v2.136
		c0.888-1.536,2.376-2.304,4.272-2.328c2.112,0,3.672,1.104,4.321,2.928c0.84-1.92,2.424-2.904,4.56-2.928
		C79.705,34.513,81.529,36.457,81.529,39.481z"/>
	<path fill="#FFFFFF" d="M95.927,39.193v8.449h-4.056v-1.488c-0.84,1.104-2.208,1.68-3.96,1.68c-2.76,0-4.44-1.68-4.44-4.056
		c0-2.448,1.752-3.888,4.969-3.913h3.408v-0.192c0-1.272-0.84-2.04-2.521-2.04c-1.08,0-2.496,0.384-3.864,1.08l-1.176-2.736
		c2.016-0.936,3.84-1.464,6-1.464C93.839,34.513,95.903,36.265,95.927,39.193z M91.847,43.25v-1.152h-2.616
		c-1.248,0-1.872,0.432-1.872,1.392c0,0.936,0.672,1.536,1.824,1.536C90.479,45.026,91.583,44.306,91.847,43.25z"/>
	<path fill="#FFFFFF" d="M107.231,46.946c-0.936,0.552-2.208,0.888-3.456,0.888c-2.497,0-4.296-1.416-4.296-4.104v-5.713h-1.8
		v-2.712h1.8v-3.601h4.128v3.577h3.384v2.736h-3.384v5.064c0,1.008,0.432,1.44,1.2,1.417c0.432,0,0.984-0.168,1.608-0.432
		L107.231,46.946z"/>
	<path fill="#FFFFFF" d="M113.591,30.985c0,1.296-0.912,2.208-2.185,2.208c-1.272,0-2.184-0.912-2.184-2.208
		c0-1.272,0.912-2.185,2.184-2.185C112.679,28.8,113.591,29.712,113.591,30.985z M109.318,47.642V34.705h4.128v12.937H109.318z"/>
	<path fill="#FFFFFF" d="M129.839,41.162c0,3.984-2.833,6.625-7.057,6.625c-4.249,0-7.081-2.64-7.081-6.625s2.832-6.601,7.081-6.601
		C127.007,34.561,129.839,37.177,129.839,41.162z M119.878,41.209c0,2.016,1.176,3.36,2.904,3.36c1.704,0,2.88-1.344,2.88-3.36
		c0-1.992-1.176-3.36-2.88-3.36C121.055,37.849,119.878,39.217,119.878,41.209z"/>
	<path fill="#FFFFFF" d="M145.271,39.481v8.161h-4.128v-7.009c0-1.512-0.888-2.448-2.28-2.448c-1.512,0-2.472,1.08-2.64,2.616v6.841
		h-4.152V34.705h4.152v2.112c0.912-1.512,2.4-2.28,4.32-2.304C143.399,34.513,145.271,36.457,145.271,39.481z"/>
	<path fill="#FFFFFF" d="M14.353,61.321l-1.608,3.336c-1.776-1.032-4.008-1.752-5.376-1.752c-1.104,0-1.848,0.408-1.848,1.224
		c0,2.904,8.88,1.248,8.88,7.321c0,3.36-2.976,5.136-6.72,5.136c-2.809,0-5.688-1.056-7.681-2.688l1.656-3.288
		c1.729,1.512,4.321,2.52,6.073,2.52c1.344,0,2.184-0.504,2.184-1.464c0-2.976-8.881-1.2-8.881-7.153
		c0-3.096,2.665-5.064,6.697-5.064C10.153,59.448,12.625,60.192,14.353,61.321z"/>
	<path fill="#FFFFFF" d="M28.897,71.089H19.8c0.408,1.536,1.512,2.4,3.048,2.4c1.128,0,2.232-0.456,3.096-1.32l2.184,2.136
		c-1.32,1.44-3.264,2.28-5.641,2.28c-4.224,0-6.864-2.64-6.864-6.577c0-4.008,2.736-6.648,6.745-6.648
		C26.929,63.361,29.185,66.361,28.897,71.089z M24.913,68.857c0-1.584-1.008-2.616-2.496-2.616c-1.44,0-2.424,1.056-2.688,2.616
		H24.913z"/>
	<path fill="#FFFFFF" d="M35.304,65.689c0.888-1.512,2.352-2.352,4.2-2.376v3.744c-2.4-0.216-3.984,0.912-4.2,2.736v6.648h-4.152
		V63.505h4.152V65.689z"/>
	<path fill="#FFFFFF" d="M45.023,76.442l-4.873-12.937h4.272l2.784,9.145l2.808-9.145h4.128l-4.872,12.937H45.023z"/>
	<path fill="#FFFFFF" d="M59.904,59.785c0,1.296-0.912,2.208-2.185,2.208c-1.272,0-2.184-0.912-2.184-2.208
		c0-1.272,0.912-2.185,2.184-2.185C58.992,57.6,59.904,58.512,59.904,59.785z M55.631,76.442V63.505h4.128v12.937H55.631z"/>
	<path fill="#FFFFFF" d="M74.496,66.265l-2.976,1.8c-0.6-0.84-1.488-1.344-2.616-1.344c-1.608,0-2.712,1.32-2.712,3.264
		c0,1.992,1.104,3.288,2.712,3.288c1.176,0,2.088-0.48,2.64-1.464l3.024,1.776c-1.056,1.896-3.144,3-5.88,3
		c-3.984,0-6.672-2.64-6.672-6.577c0-3.984,2.712-6.648,6.72-6.648C71.304,63.361,73.368,64.417,74.496,66.265z"/>
	<path fill="#FFFFFF" d="M88.416,71.089h-9.097c0.408,1.536,1.512,2.4,3.048,2.4c1.128,0,2.232-0.456,3.096-1.32l2.184,2.136
		c-1.32,1.44-3.264,2.28-5.641,2.28c-4.224,0-6.864-2.64-6.864-6.577c0-4.008,2.736-6.648,6.745-6.648
		C86.447,63.361,88.704,66.361,88.416,71.089z M84.431,68.857c0-1.584-1.008-2.616-2.496-2.616c-1.44,0-2.424,1.056-2.688,2.616
		H84.431z"/>
</g>
</svg>
