<?xml version="1.0" encoding="utf-8"?>
<!-- Generator: Adobe Illustrator 16.0.3, SVG Export Plug-In . SVG Version: 6.00 Build 0)  -->
<!DOCTYPE svg PUBLIC "-//W3C//DTD SVG 1.1//EN" "http://www.w3.org/Graphics/SVG/1.1/DTD/svg11.dtd">
<svg version="1.1" id="Layer_1" xmlns="http://www.w3.org/2000/svg" xmlns:xlink="http://www.w3.org/1999/xlink" x="0px" y="0px"
	 width="328.151px" height="23.69px" viewBox="0 0 328.151 23.69" enable-background="new 0 0 328.151 23.69" xml:space="preserve">
<g>
	<path fill="#FFFFFF" d="M4.272,5.401v3.888h7.537v3.36H4.272v6.192H0V2.041h12.457v3.36H4.272z"/>
	<path fill="#FFFFFF" d="M25.92,10.393v8.449h-4.056v-1.488c-0.84,1.104-2.208,1.68-3.96,1.68c-2.76,0-4.44-1.68-4.44-4.056
		c0-2.448,1.752-3.888,4.969-3.913h3.408v-0.192c0-1.272-0.84-2.04-2.521-2.04c-1.08,0-2.496,0.384-3.864,1.08L14.28,7.177
		c2.016-0.936,3.84-1.464,6-1.464C23.833,5.713,25.896,7.465,25.92,10.393z M21.84,14.449v-1.152h-2.616
		c-1.248,0-1.872,0.432-1.872,1.392c0,0.936,0.672,1.536,1.824,1.536C20.472,16.226,21.576,15.505,21.84,14.449z"/>
	<path fill="#FFFFFF" d="M50.81,10.681v8.161h-4.128v-7.009c0-1.536-0.864-2.472-2.232-2.472c-1.56,0.048-2.52,1.32-2.52,3.072
		v6.409h-4.152v-7.009c0-1.536-0.84-2.472-2.208-2.472C33.984,9.409,33,10.681,33,12.433v6.409h-4.128V5.905H33v2.136
		c0.888-1.536,2.376-2.304,4.272-2.328c2.112,0,3.672,1.104,4.321,2.928c0.84-1.92,2.424-2.904,4.56-2.928
		C48.985,5.713,50.81,7.657,50.81,10.681z"/>
	<path fill="#FFFFFF" d="M58.032,2.185c0,1.296-0.912,2.208-2.185,2.208c-1.272,0-2.184-0.912-2.184-2.208
		C53.663,0.912,54.575,0,55.847,0C57.12,0,58.032,0.912,58.032,2.185z M53.759,18.842V5.905h4.128v12.937H53.759z"/>
	<path fill="#FFFFFF" d="M61.343,18.842V1.032h4.152v17.81H61.343z"/>
	<path fill="#FFFFFF" d="M75.768,20.186c-0.96,2.352-2.592,3.504-4.992,3.504c-1.44,0-2.616-0.432-3.769-1.32l1.729-2.832
		c0.6,0.48,1.104,0.696,1.704,0.696c0.744,0,1.272-0.336,1.608-1.032l0.312-0.648L66.983,5.905h4.272l3.168,8.593l2.808-8.593h4.128
		L75.768,20.186z"/>
	<path fill="#FFFFFF" d="M88.439,18.842V2.041h4.272v16.801H88.439z"/>
	<path fill="#FFFFFF" d="M109.248,10.681v8.161h-4.128v-7.009c0-1.512-0.888-2.448-2.28-2.448c-1.512,0-2.472,1.08-2.64,2.616v6.841
		h-4.152V5.905h4.152v2.112c0.912-1.512,2.4-2.28,4.32-2.304C107.376,5.713,109.248,7.657,109.248,10.681z"/>
	<path fill="#FFFFFF" d="M117.071,5.544v0.937H120v2.736h-2.929v9.625h-4.104V9.217h-1.752V6.481h1.752v-1.2
		c0-2.856,2.16-4.44,4.944-4.44c1.272,0,2.64,0.336,3.625,0.912l-1.464,2.904c-0.456-0.336-1.032-0.528-1.512-0.528
		C117.719,4.104,117.071,4.584,117.071,5.544z"/>
	<path fill="#FFFFFF" d="M134.28,12.361c0,3.984-2.833,6.625-7.057,6.625c-4.249,0-7.081-2.64-7.081-6.625s2.832-6.601,7.081-6.601
		C131.447,5.761,134.28,8.377,134.28,12.361z M124.319,12.409c0,2.016,1.176,3.36,2.904,3.36c1.704,0,2.88-1.344,2.88-3.36
		c0-1.992-1.176-3.36-2.88-3.36C125.495,9.049,124.319,10.417,124.319,12.409z"/>
	<path fill="#FFFFFF" d="M140.663,8.089c0.888-1.512,2.352-2.352,4.2-2.376v3.744c-2.4-0.216-3.984,0.912-4.2,2.736v6.648h-4.152
		V5.905h4.152V8.089z"/>
	<path fill="#FFFFFF" d="M168.696,10.681v8.161h-4.128v-7.009c0-1.536-0.864-2.472-2.232-2.472c-1.56,0.048-2.52,1.32-2.52,3.072
		v6.409h-4.152v-7.009c0-1.536-0.84-2.472-2.208-2.472c-1.584,0.048-2.568,1.32-2.568,3.072v6.409h-4.128V5.905h4.128v2.136
		c0.888-1.536,2.376-2.304,4.272-2.328c2.112,0,3.672,1.104,4.321,2.928c0.84-1.92,2.424-2.904,4.56-2.928
		C166.872,5.713,168.696,7.657,168.696,10.681z"/>
	<path fill="#FFFFFF" d="M183.095,10.393v8.449h-4.056v-1.488c-0.84,1.104-2.208,1.68-3.96,1.68c-2.76,0-4.44-1.68-4.44-4.056
		c0-2.448,1.752-3.888,4.969-3.913h3.408v-0.192c0-1.272-0.84-2.04-2.521-2.04c-1.08,0-2.496,0.384-3.864,1.08l-1.176-2.736
		c2.016-0.936,3.84-1.464,6-1.464C181.007,5.713,183.071,7.465,183.095,10.393z M179.015,14.449v-1.152h-2.616
		c-1.248,0-1.872,0.432-1.872,1.392c0,0.936,0.672,1.536,1.824,1.536C177.646,16.226,178.75,15.505,179.015,14.449z"/>
	<path fill="#FFFFFF" d="M194.398,18.146c-0.936,0.552-2.208,0.888-3.456,0.888c-2.497,0-4.296-1.416-4.296-4.104V9.217h-1.8V6.505
		h1.8V2.904h4.128v3.577h3.384v2.736h-3.384v5.064c0,1.008,0.432,1.44,1.2,1.417c0.432,0,0.984-0.168,1.608-0.432L194.398,18.146z"
		/>
	<path fill="#FFFFFF" d="M200.758,2.185c0,1.296-0.912,2.208-2.185,2.208c-1.272,0-2.184-0.912-2.184-2.208
		c0-1.272,0.912-2.185,2.184-2.185C199.846,0,200.758,0.912,200.758,2.185z M196.486,18.842V5.905h4.128v12.937H196.486z"/>
	<path fill="#FFFFFF" d="M217.007,12.361c0,3.984-2.833,6.625-7.057,6.625c-4.249,0-7.081-2.64-7.081-6.625s2.832-6.601,7.081-6.601
		C214.174,5.761,217.007,8.377,217.007,12.361z M207.046,12.409c0,2.016,1.176,3.36,2.904,3.36c1.704,0,2.88-1.344,2.88-3.36
		c0-1.992-1.176-3.36-2.88-3.36C208.222,9.049,207.046,10.417,207.046,12.409z"/>
	<path fill="#FFFFFF" d="M232.438,10.681v8.161h-4.128v-7.009c0-1.512-0.888-2.448-2.28-2.448c-1.512,0-2.473,1.08-2.641,2.616
		v6.841h-4.152V5.905h4.152v2.112c0.912-1.512,2.4-2.28,4.32-2.304C230.566,5.713,232.438,7.657,232.438,10.681z"/>
	<path fill="#FFFFFF" d="M254.062,3.721l-1.608,3.336c-1.776-1.032-4.009-1.752-5.377-1.752c-1.104,0-1.848,0.408-1.848,1.224
		c0,2.904,8.881,1.248,8.881,7.32c0,3.36-2.977,5.137-6.721,5.137c-2.809,0-5.688-1.056-7.681-2.688l1.656-3.288
		c1.728,1.512,4.32,2.52,6.072,2.52c1.344,0,2.185-0.504,2.185-1.464c0-2.976-8.881-1.2-8.881-7.153
		c0-3.096,2.664-5.064,6.696-5.064C249.861,1.848,252.333,2.592,254.062,3.721z"/>
	<path fill="#FFFFFF" d="M268.606,13.489h-9.098c0.408,1.536,1.513,2.4,3.049,2.4c1.128,0,2.232-0.456,3.096-1.32l2.185,2.136
		c-1.32,1.44-3.265,2.28-5.641,2.28c-4.225,0-6.864-2.64-6.864-6.577c0-4.008,2.736-6.648,6.744-6.648
		C266.637,5.761,268.894,8.761,268.606,13.489z M264.622,11.257c0-1.584-1.009-2.616-2.497-2.616c-1.439,0-2.424,1.056-2.688,2.616
		H264.622z"/>
	<path fill="#FFFFFF" d="M275.013,8.089c0.888-1.512,2.353-2.352,4.2-2.376v3.744c-2.4-0.216-3.984,0.912-4.2,2.736v6.648h-4.152
		V5.905h4.152V8.089z"/>
	<path fill="#FFFFFF" d="M284.733,18.842l-4.872-12.937h4.272l2.784,9.145l2.809-9.145h4.128l-4.872,12.937H284.733z"/>
	<path fill="#FFFFFF" d="M299.614,2.185c0,1.296-0.912,2.208-2.185,2.208c-1.271,0-2.184-0.912-2.184-2.208
		c0-1.272,0.912-2.185,2.184-2.185C298.702,0,299.614,0.912,299.614,2.185z M295.341,18.842V5.905h4.128v12.937H295.341z"/>
	<path fill="#FFFFFF" d="M314.207,8.665l-2.977,1.8c-0.601-0.84-1.488-1.344-2.616-1.344c-1.608,0-2.713,1.32-2.713,3.264
		c0,1.992,1.104,3.288,2.713,3.288c1.176,0,2.088-0.48,2.64-1.464l3.024,1.776c-1.056,1.896-3.144,3-5.88,3
		c-3.984,0-6.673-2.64-6.673-6.577c0-3.984,2.712-6.648,6.721-6.648C311.014,5.761,313.078,6.817,314.207,8.665z"/>
	<path fill="#FFFFFF" d="M328.126,13.489h-9.098c0.408,1.536,1.513,2.4,3.049,2.4c1.128,0,2.232-0.456,3.096-1.32l2.185,2.136
		c-1.32,1.44-3.265,2.28-5.641,2.28c-4.225,0-6.864-2.64-6.864-6.577c0-4.008,2.736-6.648,6.744-6.648
		C326.158,5.761,328.415,8.761,328.126,13.489z M324.142,11.257c0-1.584-1.009-2.616-2.497-2.616c-1.439,0-2.424,1.056-2.688,2.616
		H324.142z"/>
</g>
</svg>
